<svg width="501" height="501" viewBox="0 0 501 501" fill="none" xmlns="http://www.w3.org/2000/svg">
<path d="M370.168 321.013V296.359V271.706H375.969V321.013H370.168Z" fill="#D36135"/>
<path d="M124.36 320.771L124.234 296.239L124.109 271.706H129.025L129.228 278.594C129.339 282.384 129.436 292.444 129.436 300.952C129.44 309.459 129.276 317.465 128.71 321.071L124.36 320.771Z" fill="#D36135"/>
<path d="M183.083 117.55C183.77 116.651 185.084 115.626 186.008 115.273C186.931 114.925 188.502 114.631 189.498 114.621C190.494 114.611 192.128 114.94 193.123 115.36C194.119 115.776 195.806 116.825 196.87 117.695C197.933 118.565 199.944 120.726 203.879 125.72L206.658 125.715C208.186 125.715 210.69 126.044 212.218 126.44C213.745 126.841 216.032 127.687 217.293 128.325C218.555 128.958 220.996 130.534 222.717 131.83C224.433 133.121 227.097 135.32 228.639 136.717C230.746 138.631 231.433 139.584 231.437 140.584C231.437 141.314 231.138 142.349 230.77 142.88C230.398 143.412 228.677 144.828 226.942 146.022C224.109 147.971 223.829 148.314 224.22 149.285C224.467 149.885 224.66 152.06 224.655 154.119C224.646 156.667 224.365 158.484 223.776 159.799C223.297 160.863 222.05 162.439 221.006 163.304C219.962 164.169 218.13 165.204 216.931 165.605C215.732 166.006 213.45 166.33 211.855 166.32C209.994 166.311 208.176 165.948 206.779 165.315C205.58 164.773 204.222 164.015 203.758 163.633C203.004 163.014 202.603 163.149 200.012 164.875C198.238 166.054 196.546 166.809 195.661 166.809C194.81 166.809 193.752 166.359 193.099 165.721C192.437 165.073 191.127 162.1 189.846 158.349C187.767 152.244 187.704 151.891 187.695 146.022C187.69 142.073 187.893 139.603 188.289 138.892C188.787 137.998 188.763 137.635 188.168 136.838C187.472 135.91 186.815 136.403 171.733 149.165C159.377 159.62 156.09 162.637 156.332 163.304C156.501 163.768 156.917 165.126 157.26 166.325C157.632 167.655 157.734 169.158 157.507 170.192C157.308 171.125 156.781 172.537 156.337 173.334C155.892 174.132 155.297 175.113 155.017 175.51C154.63 176.061 155.302 178.019 157.85 183.728C159.687 187.846 164.651 199.303 176.567 227.142L179.226 227.48C180.685 227.664 182.972 228.215 184.301 228.698C185.631 229.181 187.917 230.651 189.377 231.966C190.856 233.29 192.63 235.504 193.375 236.955C194.114 238.385 194.878 240.648 195.429 244.394L213.063 244.636L212.314 242.823C211.671 241.276 211.652 240.73 212.193 239.125C212.537 238.086 213.436 236.781 214.185 236.225C215.447 235.282 216.346 235.19 237.475 234.726L242.792 210.73C246.698 193.096 248.381 186.362 249.125 185.352C249.686 184.593 250.885 183.534 251.784 183.002C253.384 182.06 254.433 182.031 290.649 181.891C315.67 181.789 328.465 181.91 329.683 182.253C330.679 182.534 332.042 183.413 332.705 184.211C333.401 185.047 333.913 186.275 333.913 187.111C333.913 187.909 331.105 200.796 327.668 215.753C324.235 230.709 321.296 243.326 321.142 243.79C320.876 244.592 322.785 244.636 392.646 244.626L394.787 245.719C396.131 246.405 397.253 247.439 397.809 248.503C398.563 249.948 398.693 251.389 398.688 258.413C398.684 265.775 398.582 266.795 397.722 268.201C397.19 269.067 396.165 270.154 395.445 270.618C394.468 271.252 392.931 271.493 384.67 271.706V321.013H375.969V271.706H370.168V321.013H361.95V271.706H137.653V321.013H129.194L129.363 305.665C129.455 297.225 129.402 286.131 128.952 271.706H124.118L124.36 321.013H115.417V261.555H111.066C108.674 261.555 106.174 261.337 105.507 261.071C104.845 260.805 103.951 259.882 103.525 259.017C103.057 258.055 102.882 256.977 103.081 256.237C103.26 255.575 103.878 254.536 104.454 253.927C105.386 252.955 105.967 252.829 109.495 252.839C112.981 252.854 113.483 252.747 113.474 252.008C113.469 251.543 112.724 246.593 111.821 241.01C110.419 232.362 110.264 230.68 110.791 229.65C111.134 228.988 111.772 228.278 112.207 228.079C112.642 227.881 115.828 227.717 119.284 227.717C124.548 227.717 125.568 227.601 125.568 226.992C125.568 226.595 124.751 225.846 123.756 225.329C122.76 224.812 120.691 223.4 119.163 222.187C117.636 220.973 115.383 218.624 114.155 216.961C112.932 215.298 111.323 212.741 110.588 211.281C109.848 209.821 108.77 207.1 108.195 205.239C107.615 203.378 107.02 200.115 106.866 197.988C106.706 195.861 106.721 192.869 106.89 191.341C107.112 189.364 107.513 188.262 108.287 187.522C109.171 186.676 109.732 186.541 111.308 186.783C112.372 186.947 114.764 187.817 116.625 188.721C118.487 189.62 121.314 191.336 122.91 192.54C124.505 193.739 126.724 195.895 127.836 197.321C128.952 198.752 130.504 201.338 131.292 203.063C132.075 204.794 132.979 207.182 133.878 210.556L135.647 208.545C136.619 207.438 138.446 205.751 139.708 204.799C140.969 203.847 142.55 203.063 143.212 203.063C143.879 203.063 144.856 203.499 145.388 204.03C146.142 204.784 146.354 205.64 146.354 207.897C146.354 209.493 145.968 212.05 145.494 213.577C145.02 215.105 143.879 217.532 142.956 218.967C142.033 220.408 140.52 222.235 139.587 223.037C138.659 223.835 137.078 225 136.082 225.619C135.086 226.242 134.27 226.968 134.27 227.233C134.27 227.528 136.445 227.717 139.829 227.717C145.112 227.717 145.446 227.775 146.596 228.925C147.263 229.592 147.805 230.516 147.805 230.98C147.81 231.444 147.263 234.654 146.601 238.11C145.939 241.566 145.393 244.447 145.393 244.515C145.388 244.583 148.158 244.583 157.705 244.394L158.004 242.219C158.174 241.02 158.729 239.067 159.242 237.868C159.759 236.669 161.146 234.634 162.331 233.339C163.515 232.048 165.463 230.433 166.657 229.752C167.856 229.07 168.886 228.442 168.953 228.355C169.021 228.268 164.69 218.029 159.324 205.601C153.963 193.173 149.163 182.026 148.651 180.827C147.795 178.816 147.534 178.608 145.228 178.052C143.353 177.603 142.231 176.941 140.737 175.394C139.49 174.098 138.528 172.527 138.161 171.159C137.837 169.96 137.716 168.225 137.89 167.292C138.064 166.364 138.702 164.73 139.307 163.667C140.085 162.303 141.177 161.341 143.019 160.399C144.455 159.664 146.335 159.065 147.2 159.069C148.564 159.074 150.966 157.199 165.328 144.925C174.435 137.142 182.049 130.505 182.247 130.181C182.445 129.853 182.286 128.934 181.884 128.137C181.488 127.339 181.024 125.87 180.859 124.874C180.685 123.83 180.826 122.239 181.193 121.127C181.546 120.064 182.392 118.454 183.083 117.55Z" fill="#02020B"/>
<path d="M143.938 262.521V257.688V252.854H390.471V262.521H143.938Z" fill="#D36135"/>
<path d="M223.215 243.911C222.417 243.514 221.765 243.074 221.765 242.944C221.765 242.813 241.995 242.702 266.721 242.702C291.447 242.702 311.677 242.813 311.677 242.944C311.677 243.074 311.024 243.514 310.227 243.911C308.97 244.539 303.135 244.636 266.721 244.636C230.306 244.636 224.472 244.539 223.215 243.911Z" fill="#D36135"/>
<path d="M120.647 245.119C119.922 241.001 119.323 237.245 119.308 236.781C119.284 236.002 120.062 235.935 138.862 235.954L137.784 241.866C137.189 245.119 136.484 248.919 135.72 252.854L121.967 252.612L120.647 245.119Z" fill="#D36135"/>
<path d="M168.654 237.989C169.548 237.124 171.259 236.104 172.458 235.722C173.657 235.345 175.339 235.016 176.204 235.002C177.07 234.982 178.699 235.19 179.83 235.456C180.961 235.727 182.754 236.669 183.818 237.549C184.881 238.429 186.109 239.898 186.544 240.807C186.979 241.716 187.468 242.949 187.927 244.636H176.567C167.793 244.636 165.212 244.5 165.217 244.031C165.222 243.698 165.632 242.557 166.126 241.494C166.619 240.43 167.755 238.854 168.654 237.989Z" fill="#D36135"/>
<path d="M115.886 204.272C115.427 202.943 114.885 200.603 114.687 199.075C114.484 197.519 114.513 196.296 114.75 196.291C114.982 196.291 115.717 196.649 116.384 197.089C117.046 197.529 118.752 198.998 120.169 200.356C121.585 201.71 123.306 203.909 123.988 205.239C124.669 206.568 125.52 208.743 125.878 210.073C126.231 211.402 126.526 213.742 126.535 218.049L124.316 216.478C123.098 215.612 121.276 213.819 120.266 212.49C119.255 211.16 118.047 209.314 117.578 208.381C117.109 207.448 116.35 205.601 115.886 204.272Z" fill="#D36135"/>
<path d="M251.257 208.381C253.147 200.008 254.902 192.337 255.163 191.341L255.632 189.528H290.663C318.488 189.528 325.647 189.654 325.468 190.133C325.342 190.466 323.061 200.579 320.392 212.611C317.724 224.642 315.544 234.596 315.544 234.726C315.544 234.857 299.771 234.968 280.498 234.968C249.666 234.968 245.451 234.881 245.451 234.243C245.451 233.846 245.983 231.289 246.636 228.563C247.283 225.836 249.362 216.753 251.257 208.381Z" fill="#D36135"/>
<path d="M145.286 168.718C145.238 168.041 145.499 167.224 145.871 166.905C146.243 166.586 147.157 166.325 147.901 166.325C148.83 166.325 149.482 166.707 149.98 167.534C150.628 168.607 150.628 168.878 149.98 169.951C149.492 170.768 148.825 171.164 147.926 171.169C147.196 171.174 146.321 170.898 145.987 170.565C145.649 170.226 145.335 169.395 145.286 168.718Z" fill="#D36135"/>
<path d="M209.496 159.446C208.669 158.886 208.988 158.547 213.121 155.594C215.616 153.81 217.82 152.34 218.018 152.331C218.216 152.316 218.381 153.283 218.381 154.482C218.381 156.3 218.11 156.933 216.737 158.349C215.306 159.819 214.789 160.041 212.749 160.051C211.459 160.056 209.994 159.78 209.496 159.446Z" fill="#ECE4B7"/>
<path d="M200.012 135.968C200.945 135.272 202.574 134.426 203.637 134.083C204.701 133.744 206.658 133.541 207.988 133.638C209.317 133.734 211.492 134.295 212.822 134.88C214.151 135.465 216.481 136.852 218.004 137.959C219.522 139.071 220.72 140.14 220.662 140.328C220.604 140.521 215.447 144.277 209.196 148.671C198.131 156.459 197.822 156.638 197.28 155.574C196.971 154.975 196.352 153.066 195.898 151.34C195.381 149.353 195.154 147.129 195.289 145.297C195.434 143.311 195.946 141.58 196.913 139.811C197.687 138.39 199.079 136.659 200.012 135.968Z" fill="#D36135"/>
<path d="M188.294 123.704C188.251 122.989 188.507 122.326 188.869 122.215C189.227 122.099 189.962 122.138 190.503 122.292C191.045 122.452 192.65 123.883 196.652 128.378L195.071 129.713C194.196 130.447 193.321 131.047 193.123 131.042C192.925 131.042 191.775 129.679 190.566 128.016C189.358 126.353 188.338 124.415 188.294 123.704Z" fill="#D36135"/>
<path d="M130.151 106.746C130.567 105.722 131.567 104.513 132.457 103.967C134.013 103.01 134.951 103.005 252.823 103C357.455 103 371.792 103.087 373.068 103.725C373.866 104.121 374.9 105.156 375.365 106.021C376.157 107.496 376.22 111.909 376.452 244.636H348.657C322.399 244.636 320.876 244.587 321.142 243.79C321.296 243.326 324.235 230.709 327.668 215.753C331.105 200.796 333.913 187.909 333.913 187.111C333.913 186.275 333.401 185.047 332.705 184.211C332.037 183.413 330.679 182.534 329.683 182.253C328.465 181.91 315.67 181.789 290.649 181.891C254.433 182.031 253.384 182.06 251.784 183.002C250.885 183.534 249.686 184.593 249.125 185.352C248.381 186.362 246.698 193.096 237.475 234.726L226.512 234.968C216.346 235.19 215.447 235.282 214.185 236.225C213.436 236.781 212.537 238.086 212.193 239.125C211.652 240.73 211.671 241.276 213.063 244.636L195.429 244.394L195.071 241.977C194.878 240.648 194.114 238.385 193.375 236.955C192.63 235.504 190.856 233.29 189.377 231.966C187.917 230.651 185.631 229.181 184.301 228.698C182.972 228.215 180.685 227.664 176.567 227.142L168.881 209.178C164.651 199.303 159.687 187.846 157.85 183.728C155.302 178.019 154.63 176.061 155.017 175.51C155.297 175.113 155.892 174.132 156.337 173.334C156.781 172.537 157.308 171.125 157.506 170.192C157.734 169.158 157.632 167.655 157.26 166.325C156.917 165.126 156.501 163.768 156.332 163.304C156.09 162.637 159.377 159.62 171.733 149.165C186.815 136.403 187.472 135.91 188.168 136.838C188.763 137.635 188.787 137.998 188.289 138.892C187.893 139.603 187.69 142.073 187.695 146.022C187.704 151.891 187.767 152.244 189.846 158.349C191.127 162.1 192.437 165.073 193.099 165.721C193.752 166.359 194.81 166.809 195.661 166.809C196.546 166.809 198.238 166.054 200.012 164.875C202.603 163.149 203.004 163.014 203.758 163.633C204.222 164.015 205.58 164.773 206.779 165.315C208.176 165.948 209.994 166.311 211.855 166.32C213.45 166.33 215.732 166.006 216.931 165.605C218.129 165.204 219.962 164.169 221.006 163.304C222.05 162.439 223.297 160.863 223.776 159.799C224.365 158.484 224.646 156.667 224.655 154.119C224.66 152.06 224.467 149.885 224.22 149.285C223.829 148.314 224.109 147.971 226.942 146.022C228.677 144.828 230.398 143.412 230.77 142.88C231.138 142.349 231.437 141.314 231.437 140.584C231.433 139.584 230.746 138.631 228.639 136.717C227.097 135.32 224.433 133.121 222.717 131.83C220.996 130.534 218.555 128.958 217.293 128.325C216.032 127.687 213.745 126.841 212.218 126.44C210.69 126.044 208.186 125.715 203.879 125.72L201.341 122.5C199.944 120.726 197.933 118.565 196.87 117.695C195.806 116.825 194.119 115.776 193.123 115.36C192.127 114.94 190.552 114.602 189.619 114.602C188.686 114.602 187.221 114.892 186.356 115.249C185.49 115.607 184.122 116.642 183.305 117.545C182.493 118.454 181.546 120.064 181.193 121.127C180.826 122.239 180.685 123.83 180.859 124.874C181.024 125.87 181.488 127.339 181.884 128.137C182.281 128.934 182.445 129.853 182.247 130.181C182.049 130.505 174.435 137.142 165.328 144.925C150.966 157.199 148.564 159.074 147.2 159.069C146.335 159.065 144.455 159.664 143.019 160.399C141.177 161.341 140.085 162.303 139.307 163.667C138.702 164.73 138.064 166.359 137.89 167.292C137.716 168.225 137.837 169.96 138.161 171.159C138.528 172.527 139.49 174.098 140.737 175.394C142.231 176.941 143.353 177.603 145.228 178.052C147.534 178.608 147.795 178.816 148.651 180.827C149.163 182.026 153.963 193.173 159.324 205.601C164.69 218.029 169.021 228.268 168.953 228.355C168.886 228.442 167.856 229.07 166.657 229.752C165.458 230.433 163.515 232.048 162.331 233.339C161.146 234.634 159.759 236.669 159.242 237.868C158.729 239.067 158.174 241.02 157.705 244.394L151.546 244.515C148.158 244.583 145.388 244.583 145.393 244.515C145.393 244.447 145.939 241.566 146.601 238.11C147.263 234.654 147.81 231.444 147.805 230.98C147.805 230.516 147.258 229.592 146.596 228.925C145.446 227.775 145.112 227.717 139.829 227.717C136.445 227.717 134.27 227.528 134.27 227.233C134.27 226.968 135.086 226.242 136.082 225.619C137.078 225 138.654 223.835 139.587 223.038C140.52 222.235 142.033 220.408 142.956 218.967C143.879 217.532 145.02 215.105 145.494 213.577C145.968 212.05 146.354 209.493 146.354 207.897C146.354 205.64 146.142 204.784 145.388 204.03C144.856 203.499 143.875 203.063 143.212 203.063C142.545 203.063 140.969 203.847 139.708 204.799C138.446 205.751 136.619 207.438 133.878 210.556L133.303 208.381C132.984 207.182 131.983 204.577 129.411 198.955V153.757C129.411 114.37 129.508 108.327 130.151 106.746Z" fill="#ECE4B7"/>
<path d="M292.341 118.865C292.892 118.15 293.825 117.497 294.415 117.415C294.999 117.328 309.216 117.26 326.005 117.26C355.864 117.26 356.551 117.28 357.566 118.227C358.595 119.189 358.6 119.257 358.566 169.709L357.237 170.69C355.932 171.657 355.337 171.676 294.274 171.643L291.374 168.742L291.359 144.451C291.34 120.605 291.359 120.136 292.341 118.865Z" fill="#02020B"/>
<path d="M316.201 146.748C316.67 145.684 317.507 144.326 318.072 143.726C318.633 143.127 319.542 142.639 320.098 142.634C320.649 142.634 321.64 143.016 322.292 143.48C322.945 143.949 324.395 146.288 325.512 148.681C326.628 151.074 327.837 153.293 328.19 153.607C328.547 153.926 330.669 154.25 337.055 154.482L337.297 163.425H315.061L315.21 156.053C315.326 150.339 315.549 148.246 316.201 146.748Z" fill="#D36135"/>
<path d="M299.108 163.425V144.089V124.753H350.832V163.425H344.064V158.228C344.064 154.235 343.866 152.65 343.219 151.374C342.754 150.465 341.831 149.3 341.164 148.797C340.318 148.149 338.868 147.801 332.705 147.39L331.322 144.654C330.558 143.146 329.253 141.068 328.422 140.033C327.585 138.999 325.927 137.597 324.729 136.92C323.196 136.055 321.843 135.692 320.136 135.697C318.502 135.702 317.023 136.084 315.568 136.877C314.384 137.519 312.682 139.028 311.783 140.222C310.889 141.416 309.729 143.813 309.207 145.539C308.554 147.7 308.153 150.977 307.568 163.43L299.108 163.425Z" fill="#ECE4B7"/>
<path d="M384.498 340.138C385.203 341.49 385.174 342.871 384.41 344.282L367.92 371.089C367.685 371.383 367.567 371.883 367.567 372.588V393.663C367.567 394.78 367.156 395.75 366.333 396.573C365.569 397.337 364.628 397.719 363.511 397.719H361.042C359.925 397.719 358.955 397.337 358.132 396.573C357.368 395.75 356.986 394.78 356.986 393.663V372.5C356.986 371.853 356.839 371.383 356.545 371.089L340.143 344.282C339.379 342.812 339.35 341.46 340.055 340.226C340.819 338.815 341.995 338.109 343.582 338.109H346.404C347.991 338.109 349.167 338.756 349.931 340.049C350.578 341.049 351.548 342.636 352.841 344.811C354.135 346.986 355.575 349.367 357.162 351.954C358.749 354.482 360.248 356.892 361.659 359.185C361.777 359.42 361.953 359.537 362.188 359.537C362.482 359.537 362.717 359.42 362.894 359.185C364.481 356.598 366.039 354.07 367.567 351.601C369.096 349.073 370.477 346.81 371.712 344.811C373.005 342.754 373.975 341.166 374.622 340.049C375.386 338.756 376.532 338.109 378.061 338.109H380.883C382.529 338.109 383.734 338.786 384.498 340.138Z" fill="black"/>
<path d="M343.492 393.663C343.492 394.78 343.081 395.75 342.258 396.573C341.493 397.337 340.582 397.719 339.524 397.719H309.19C308.132 397.719 307.191 397.337 306.368 396.573C305.604 395.75 305.222 394.78 305.222 393.663V342.166C305.222 340.99 305.604 340.02 306.368 339.256C307.191 338.492 308.132 338.109 309.19 338.109H311.659C312.776 338.109 313.717 338.492 314.481 339.256C315.304 340.02 315.715 340.99 315.715 342.166V386.168C315.715 386.932 316.068 387.314 316.774 387.314H339.524C340.582 387.314 341.493 387.696 342.258 388.46C343.081 389.225 343.492 390.195 343.492 391.37V393.663Z" fill="black"/>
<path d="M296.435 340.49C296.729 341.196 296.817 341.96 296.699 342.783C296.641 343.547 296.317 344.253 295.729 344.899L275.536 367.121C275.007 367.65 275.007 368.208 275.536 368.796L295.729 390.929C296.317 391.517 296.641 392.223 296.699 393.046C296.817 393.81 296.729 394.545 296.435 395.25C296.141 396.014 295.641 396.632 294.936 397.102C294.289 397.514 293.584 397.719 292.82 397.719H289.469C288.41 397.719 287.441 397.278 286.559 396.397L269.893 378.055C269.775 377.879 269.599 377.849 269.364 377.967C269.187 378.026 269.099 378.143 269.099 378.32V393.663C269.099 394.78 268.688 395.75 267.865 396.573C267.1 397.337 266.16 397.719 265.043 397.719H262.574C261.457 397.719 260.516 397.337 259.752 396.573C258.988 395.75 258.606 394.78 258.606 393.663V342.166C258.606 340.99 258.988 340.02 259.752 339.256C260.516 338.492 261.457 338.109 262.574 338.109H265.043C266.16 338.109 267.1 338.492 267.865 339.256C268.688 340.02 269.099 340.99 269.099 342.166V357.421C269.099 357.656 269.187 357.803 269.364 357.862C269.599 357.921 269.775 357.891 269.893 357.774L286.559 339.432C287.441 338.55 288.44 338.109 289.557 338.109H292.82C294.524 338.109 295.729 338.903 296.435 340.49Z" fill="black"/>
<path d="M250.047 386.08C250.047 388.196 249.518 390.136 248.459 391.899C247.401 393.663 245.99 395.074 244.227 396.132C242.463 397.19 240.523 397.719 238.407 397.719H221.476C219.36 397.719 217.391 397.19 215.568 396.132C213.805 395.074 212.394 393.663 211.336 391.899C210.277 390.136 209.748 388.196 209.748 386.08V383.434C209.748 382.317 210.13 381.377 210.895 380.612C211.718 379.789 212.688 379.378 213.805 379.378H216.274C217.332 379.378 218.243 379.789 219.007 380.612C219.83 381.377 220.242 382.317 220.242 383.434V386.08C220.242 386.373 220.359 386.667 220.594 386.961C220.888 387.196 221.182 387.314 221.476 387.314H238.407C238.701 387.314 238.965 387.196 239.2 386.961C239.436 386.667 239.553 386.373 239.553 386.08V378.055C239.553 377.408 239.259 376.997 238.671 376.821L217.508 368.884C215.157 368.061 213.275 366.621 211.865 364.564C210.454 362.506 209.748 360.243 209.748 357.774V349.837C209.748 347.662 210.277 345.693 211.336 343.929C212.394 342.166 213.805 340.755 215.568 339.697C217.391 338.639 219.36 338.109 221.476 338.109H238.407C240.523 338.109 242.463 338.639 244.227 339.697C245.99 340.755 247.401 342.166 248.459 343.929C249.518 345.693 250.047 347.662 250.047 349.837V352.218C250.047 353.335 249.635 354.276 248.812 355.04C248.048 355.804 247.107 356.186 245.99 356.186H243.609C242.493 356.186 241.523 355.804 240.7 355.04C239.935 354.276 239.553 353.335 239.553 352.218V349.837C239.553 349.014 239.171 348.603 238.407 348.603H221.476C221.182 348.603 220.888 348.721 220.594 348.956C220.359 349.191 220.242 349.485 220.242 349.837V357.774C220.242 358.479 220.536 358.92 221.124 359.096L242.375 367.033C244.668 367.856 246.519 369.296 247.93 371.353C249.341 373.411 250.047 375.645 250.047 378.055V386.08Z" fill="black"/>
<path d="M201.312 393.663C201.312 394.78 200.9 395.75 200.077 396.573C199.313 397.337 198.402 397.719 197.344 397.719H167.01C165.952 397.719 165.011 397.337 164.188 396.573C163.424 395.75 163.042 394.78 163.042 393.663V342.166C163.042 340.99 163.424 340.02 164.188 339.256C165.011 338.492 165.952 338.109 167.01 338.109H197.344C198.402 338.109 199.313 338.492 200.077 339.256C200.9 340.02 201.312 340.99 201.312 342.166V344.547C201.312 345.664 200.9 346.634 200.077 347.457C199.313 348.221 198.402 348.603 197.344 348.603H174.593C173.888 348.603 173.535 348.985 173.535 349.749V361.477C173.535 362.3 173.888 362.712 174.593 362.712H194.169C195.345 362.712 196.315 363.094 197.079 363.858C197.844 364.622 198.226 365.563 198.226 366.68V369.149C198.226 370.266 197.844 371.236 197.079 372.059C196.315 372.823 195.345 373.205 194.169 373.205H174.593C173.888 373.205 173.535 373.558 173.535 374.263V386.168C173.535 386.932 173.888 387.314 174.593 387.314H197.344C198.402 387.314 199.313 387.696 200.077 388.46C200.9 389.225 201.312 390.195 201.312 391.37V393.663Z" fill="black"/>
<path d="M154.544 386.08C154.544 388.196 154.015 390.136 152.957 391.899C151.899 393.663 150.488 395.074 148.724 396.132C146.961 397.19 145.021 397.719 142.904 397.719H119.36C118.243 397.719 117.273 397.337 116.45 396.573C115.686 395.75 115.304 394.78 115.304 393.663V342.166C115.304 340.99 115.686 340.02 116.45 339.256C117.273 338.492 118.243 338.109 119.36 338.109H142.904C145.021 338.109 146.961 338.639 148.724 339.697C150.488 340.755 151.899 342.166 152.957 343.929C154.015 345.693 154.544 347.662 154.544 349.837V386.08ZM144.051 386.08V349.837C144.051 349.014 143.668 348.603 142.904 348.603H127.032C126.268 348.603 125.885 348.985 125.885 349.749V386.168C125.885 386.932 126.268 387.314 127.032 387.314H142.904C143.198 387.314 143.463 387.196 143.698 386.961C143.933 386.667 144.051 386.373 144.051 386.08Z" fill="black"/>
</svg>
