<svg width="296" height="295" viewBox="0 0 296 295" fill="none" xmlns="http://www.w3.org/2000/svg">
<path d="M267.168 218.013V193.359V168.706H272.969V218.013H267.168Z" fill="#D36135"/>
<path d="M21.3599 217.771L21.2342 193.239L21.1085 168.706H26.0247L26.2277 175.594C26.3389 179.384 26.4356 189.444 26.4356 197.952C26.4404 206.459 26.2761 214.465 25.7105 218.071L21.3599 217.771Z" fill="#D36135"/>
<path d="M80.0831 14.5503C80.7695 13.6512 82.0844 12.6264 83.0077 12.2735C83.931 11.9254 85.502 11.6306 86.4978 11.6209C87.4936 11.6112 89.1275 11.9399 90.1233 12.3605C91.1191 12.7762 92.8062 13.8252 93.8696 14.6953C94.9331 15.5654 96.9441 17.7262 100.879 22.7197L103.658 22.7149C105.186 22.7149 107.69 23.0436 109.218 23.44C110.745 23.8412 113.032 24.6872 114.293 25.3252C115.555 25.9585 117.996 27.5344 119.717 28.8299C121.433 30.1206 124.097 32.32 125.639 33.717C127.746 35.6313 128.433 36.5836 128.437 37.5842C128.437 38.3142 128.138 39.3486 127.77 39.8804C127.398 40.4121 125.677 41.8285 123.942 43.0225C121.109 44.9706 120.829 45.3138 121.22 46.2854C121.467 46.8848 121.66 49.0601 121.655 51.1194C121.646 53.6669 121.365 55.4845 120.776 56.7993C120.297 57.8628 119.05 59.4387 118.006 60.304C116.962 61.1692 115.13 62.2037 113.931 62.6049C112.732 63.0061 110.45 63.33 108.855 63.3204C106.994 63.3107 105.176 62.9481 103.779 62.3149C102.58 61.7735 101.222 61.0145 100.758 60.6327C100.004 60.0139 99.6027 60.1493 97.0117 61.875C95.2377 63.0545 93.5458 63.8086 92.6611 63.8086C91.8104 63.8086 90.7517 63.359 90.0991 62.7209C89.4369 62.0732 88.1269 59.1003 86.8459 55.3491C84.7673 49.2438 84.7044 48.8909 84.6947 43.0225C84.6899 39.0731 84.8929 36.6029 85.2893 35.8923C85.7872 34.998 85.763 34.6355 85.1685 33.8379C84.4724 32.9098 83.8149 33.4028 68.7329 46.1645C56.3773 56.6205 53.0901 59.6369 53.3318 60.304C53.501 60.768 53.9168 62.1264 54.26 63.3252C54.6322 64.6545 54.7337 66.1579 54.5065 67.1924C54.3083 68.1253 53.7814 69.5369 53.3367 70.3345C52.8919 71.1321 52.2974 72.1134 52.017 72.5098C51.6303 73.0608 52.3022 75.0186 54.8497 80.7275C56.6866 84.8461 61.6511 96.3026 73.5669 124.142L76.2256 124.48C77.6855 124.664 79.9719 125.215 81.3013 125.698C82.6306 126.181 84.9171 127.651 86.377 128.966C87.8562 130.29 89.6302 132.504 90.3747 133.955C91.1143 135.385 91.878 137.648 92.4291 141.394L110.063 141.636L109.314 139.823C108.671 138.276 108.652 137.73 109.193 136.125C109.537 135.086 110.436 133.781 111.185 133.225C112.447 132.282 113.346 132.19 134.475 131.726L139.792 107.73C143.698 90.0958 145.381 83.3621 146.125 82.3518C146.686 81.5928 147.885 80.5342 148.784 80.0024C150.384 79.0598 151.433 79.0308 187.649 78.8906C212.67 78.7891 225.465 78.91 226.683 79.2532C227.679 79.5335 229.042 80.4133 229.705 81.2109C230.401 82.0472 230.913 83.275 230.913 84.1113C230.913 84.9089 228.105 97.7963 224.668 112.753C221.235 127.709 218.296 140.326 218.142 140.79C217.876 141.592 219.785 141.636 289.646 141.626L291.787 142.719C293.131 143.405 294.253 144.439 294.809 145.503C295.563 146.948 295.693 148.389 295.688 155.413C295.684 162.775 295.582 163.795 294.722 165.201C294.19 166.067 293.165 167.154 292.445 167.618C291.468 168.252 289.931 168.493 281.67 168.706V218.013H272.969V168.706H267.168V218.013H258.95V168.706H34.6533V218.013H26.1939L26.363 202.665C26.4549 194.225 26.4017 183.131 25.9522 168.706H21.1182L21.3599 218.013H12.417V158.555H8.06641C5.67359 158.555 3.17442 158.337 2.50733 158.071C1.84508 157.805 0.95079 156.882 0.525399 156.017C0.0565024 155.055 -0.117521 153.977 0.0806723 153.237C0.25953 152.575 0.87828 151.536 1.45352 150.927C2.38648 149.955 2.96656 149.829 6.49537 149.839C9.98067 149.854 10.4834 149.747 10.4737 149.008C10.4689 148.543 9.72447 143.593 8.82052 138.01C7.41866 129.362 7.26397 127.68 7.79088 126.65C8.13409 125.988 8.77218 125.278 9.20724 125.079C9.64229 124.881 12.8279 124.717 16.2842 124.717C21.5484 124.717 22.5684 124.601 22.5684 123.992C22.5684 123.595 21.7514 122.846 20.7556 122.329C19.7598 121.812 17.6909 120.4 16.1633 119.187C14.6358 117.973 12.3832 115.624 11.1553 113.961C9.93233 112.298 8.32262 109.741 7.58785 108.281C6.84825 106.821 5.77027 104.1 5.19503 102.239C4.61495 100.378 4.02037 97.1147 3.86568 94.9878C3.70616 92.8608 3.72066 89.8686 3.88985 88.3411C4.11222 86.364 4.51344 85.2618 5.28687 84.5222C6.17149 83.6763 6.73223 83.5409 8.30811 83.7826C9.37159 83.947 11.7644 84.8171 13.6255 85.721C15.4866 86.6202 18.3145 88.3362 19.9097 89.5399C21.5049 90.7387 23.7237 92.8947 24.8355 94.3207C25.9522 95.7516 27.5039 98.3377 28.2918 100.063C29.0749 101.794 29.9789 104.182 30.878 107.556L32.6472 105.545C33.6189 104.438 35.4461 102.751 36.7078 101.799C37.9694 100.847 39.5502 100.063 40.2124 100.063C40.8795 100.063 41.856 100.499 42.3877 101.03C43.1418 101.784 43.3545 102.64 43.3545 104.897C43.3545 106.493 42.9678 109.05 42.494 110.577C42.0203 112.105 40.8795 114.532 39.9562 115.967C39.0329 117.408 37.5199 119.235 36.5869 120.037C35.6588 120.835 34.0781 122 33.0823 122.619C32.0865 123.242 31.2695 123.968 31.2695 124.233C31.2695 124.528 33.4448 124.717 36.8286 124.717C42.1122 124.717 42.4457 124.775 43.5962 125.925C44.2633 126.592 44.8047 127.516 44.8047 127.98C44.8095 128.444 44.2633 131.654 43.601 135.11C42.9388 138.566 42.3925 141.447 42.3925 141.515C42.3877 141.583 45.1576 141.583 54.7047 141.394L55.0044 139.219C55.1736 138.02 55.7295 136.067 56.2419 134.868C56.7591 133.669 58.1465 131.634 59.3308 130.339C60.5151 129.048 62.4632 127.433 63.6572 126.752C64.8561 126.07 65.8857 125.442 65.9534 125.355C66.0211 125.268 61.6898 115.029 56.3241 102.601C50.9632 90.1731 46.163 79.026 45.6506 77.8271C44.795 75.8162 44.534 75.6083 42.2282 75.0524C40.3526 74.6029 39.2311 73.9406 37.7374 72.3937C36.4902 71.0982 35.5283 69.5272 35.1609 68.1592C34.837 66.9604 34.7162 65.2249 34.8902 64.292C35.0642 63.3639 35.7023 61.73 36.3066 60.6665C37.0848 59.3033 38.1773 58.3414 40.0191 57.3987C41.4547 56.664 43.3352 56.0646 44.2004 56.0694C45.5636 56.0742 47.9661 54.1986 62.3279 41.9251C71.4351 34.1424 79.0486 27.5054 79.2468 27.1815C79.445 26.8528 79.2855 25.9343 78.8843 25.1367C78.4879 24.3391 78.0238 22.8696 77.8595 21.8738C77.6855 20.8296 77.8256 19.2393 78.193 18.1274C78.5459 17.064 79.3919 15.4542 80.0831 14.5503Z" fill="#02020B"/>
<path d="M40.9375 159.521V154.688V149.854H287.471V159.521H40.9375Z" fill="#D36135"/>
<path d="M120.215 140.911C119.417 140.514 118.765 140.074 118.765 139.944C118.765 139.813 138.995 139.702 163.721 139.702C188.447 139.702 208.677 139.813 208.677 139.944C208.677 140.074 208.024 140.514 207.227 140.911C205.97 141.539 200.135 141.636 163.721 141.636C127.306 141.636 121.472 141.539 120.215 140.911Z" fill="#D36135"/>
<path d="M17.6474 142.119C16.9223 138.001 16.3229 134.245 16.3084 133.781C16.2842 133.002 17.0625 132.935 35.8618 132.954L34.7839 138.866C34.1893 142.119 33.4835 145.919 32.7198 149.854L18.9671 149.612L17.6474 142.119Z" fill="#D36135"/>
<path d="M65.6537 134.989C66.548 134.124 68.2592 133.104 69.458 132.722C70.6569 132.345 72.3391 132.016 73.2044 132.002C74.0697 131.982 75.6987 132.19 76.8299 132.456C77.961 132.727 79.7544 133.669 80.8179 134.549C81.8814 135.429 83.1092 136.898 83.5443 137.807C83.9793 138.716 84.4676 139.949 84.9268 141.636H73.5669C64.7932 141.636 62.2119 141.5 62.2167 141.031C62.2216 140.698 62.6325 139.557 63.1255 138.494C63.6186 137.43 64.7546 135.854 65.6537 134.989Z" fill="#D36135"/>
<path d="M12.8859 101.272C12.4267 99.9426 11.8853 97.603 11.6871 96.0754C11.4841 94.5189 11.5131 93.2959 11.7499 93.2911C11.982 93.2911 12.7167 93.6488 13.3838 94.0887C14.0461 94.5286 15.7525 95.9981 17.1688 97.3564C18.5852 98.71 20.3061 100.909 20.9877 102.239C21.6693 103.568 22.5201 105.743 22.8778 107.073C23.2306 108.402 23.5255 110.742 23.5352 115.049L21.3164 113.478C20.0982 112.612 18.2758 110.819 17.2655 109.49C16.2552 108.16 15.0467 106.314 14.5778 105.381C14.1089 104.448 13.35 102.601 12.8859 101.272Z" fill="#D36135"/>
<path d="M148.257 105.381C150.147 97.0084 151.902 89.3369 152.163 88.3411L152.632 86.5283H187.663C215.488 86.5283 222.647 86.654 222.468 87.1326C222.342 87.4661 220.061 97.5788 217.392 109.611C214.724 121.642 212.544 131.596 212.544 131.726C212.544 131.857 196.771 131.968 177.498 131.968C146.666 131.968 142.451 131.881 142.451 131.243C142.451 130.846 142.983 128.289 143.636 125.563C144.283 122.836 146.362 113.753 148.257 105.381Z" fill="#D36135"/>
<path d="M42.2862 65.718C42.2379 65.0413 42.4989 64.2243 42.8711 63.9053C43.2433 63.5862 44.157 63.3252 44.9014 63.3252C45.8295 63.3252 46.4821 63.7071 46.98 64.5337C47.6278 65.6068 47.6278 65.8775 46.98 66.9507C46.4918 67.7676 45.8247 68.164 44.9256 68.1688C44.1956 68.1737 43.3207 67.8981 42.9871 67.5646C42.6488 67.2262 42.3346 66.3948 42.2862 65.718Z" fill="#D36135"/>
<path d="M106.496 56.4464C105.669 55.8857 105.988 55.5473 110.121 52.5938C112.616 50.81 114.82 49.3405 115.018 49.3308C115.217 49.3163 115.381 50.2831 115.381 51.4819C115.381 53.2995 115.11 53.9328 113.737 55.3491C112.306 56.8187 111.789 57.041 109.749 57.0507C108.459 57.0555 106.994 56.78 106.496 56.4464Z" fill="#ECE4B7"/>
<path d="M97.0117 32.9678C97.9447 32.2717 99.5737 31.4257 100.637 31.0825C101.701 30.7441 103.658 30.5411 104.988 30.6378C106.317 30.7345 108.492 31.2952 109.822 31.8801C111.151 32.465 113.481 33.8524 115.004 34.9594C116.522 36.0712 117.72 37.1395 117.662 37.328C117.604 37.5214 112.447 41.2774 106.196 45.6715C95.1313 53.459 94.8219 53.6379 94.2805 52.5744C93.9711 51.975 93.3524 50.0656 92.898 48.3398C92.3807 46.3531 92.1535 44.1294 92.2889 42.2974C92.4339 40.3106 92.9463 38.58 93.9131 36.8108C94.6866 35.3896 96.0787 33.659 97.0117 32.9678Z" fill="#D36135"/>
<path d="M85.2941 20.704C85.2506 19.9885 85.5068 19.3263 85.8694 19.2151C86.2271 19.0991 86.9618 19.1377 87.5033 19.2924C88.0447 19.452 89.6495 20.8828 93.6521 25.3784L92.0714 26.7126C91.1964 27.4474 90.3215 28.0468 90.1233 28.0419C89.9251 28.0419 88.7746 26.6788 87.5661 25.0159C86.3576 23.353 85.3376 21.4146 85.2941 20.704Z" fill="#D36135"/>
<path d="M27.151 3.74634C27.5667 2.72153 28.5673 1.51304 29.4568 0.966797C31.0133 0.00966796 31.9511 0.00483398 149.823 0C254.455 0 268.792 0.0870117 270.068 0.725098C270.866 1.12148 271.9 2.15596 272.365 3.02124C273.157 4.49561 273.22 8.90903 273.452 141.636H245.657C219.399 141.636 217.876 141.587 218.142 140.79C218.296 140.326 221.235 127.709 224.668 112.753C228.105 97.7963 230.913 84.9089 230.913 84.1113C230.913 83.275 230.401 82.0472 229.705 81.2109C229.037 80.4133 227.679 79.5335 226.683 79.2532C225.465 78.91 212.67 78.7891 187.649 78.8906C151.433 79.0308 150.384 79.0598 148.784 80.0024C147.885 80.5342 146.686 81.5928 146.125 82.3518C145.381 83.3621 143.698 90.0958 134.475 131.726L123.512 131.968C113.346 132.19 112.447 132.282 111.185 133.225C110.436 133.781 109.537 135.086 109.193 136.125C108.652 137.73 108.671 138.276 110.063 141.636L92.4291 141.394L92.0714 138.977C91.878 137.648 91.1143 135.385 90.3747 133.955C89.6302 132.504 87.8562 130.29 86.377 128.966C84.9171 127.651 82.6306 126.181 81.3013 125.698C79.9719 125.215 77.6855 124.664 73.5669 124.142L65.8809 106.178C61.6511 96.3026 56.6866 84.8461 54.8497 80.7275C52.3022 75.0186 51.6303 73.0608 52.017 72.5098C52.2974 72.1134 52.8919 71.1321 53.3367 70.3345C53.7814 69.5369 54.3083 68.1253 54.5065 67.1924C54.7337 66.1579 54.6322 64.6545 54.26 63.3252C53.9167 62.1264 53.501 60.768 53.3318 60.304C53.0901 59.6369 56.3772 56.6205 68.7329 46.1646C83.8149 33.4028 84.4724 32.9098 85.1685 33.8379C85.763 34.6355 85.7872 34.998 85.2893 35.8923C84.8929 36.6029 84.6899 39.0731 84.6947 43.0225C84.7044 48.8909 84.7672 49.2438 86.8458 55.3491C88.1269 59.1003 89.4369 62.0732 90.0991 62.7209C90.7517 63.359 91.8104 63.8086 92.6611 63.8086C93.5458 63.8086 95.2376 63.0545 97.0117 61.875C99.6027 60.1493 100.004 60.0139 100.758 60.6327C101.222 61.0145 102.58 61.7735 103.779 62.3149C105.176 62.9481 106.994 63.3107 108.855 63.3204C110.45 63.33 112.732 63.0061 113.931 62.6049C115.129 62.2037 116.962 61.1692 118.006 60.304C119.05 59.4387 120.297 57.8628 120.776 56.7993C121.365 55.4845 121.646 53.6669 121.655 51.1194C121.66 49.0601 121.467 46.8848 121.22 46.2854C120.829 45.3138 121.109 44.9706 123.942 43.0225C125.677 41.8285 127.398 40.4121 127.77 39.8804C128.138 39.3486 128.437 38.3142 128.437 37.5842C128.433 36.5836 127.746 35.6313 125.639 33.717C124.097 32.32 121.433 30.1206 119.717 28.8299C117.996 27.5344 115.555 25.9585 114.293 25.3252C113.032 24.6872 110.745 23.8412 109.218 23.44C107.69 23.0436 105.186 22.7149 100.879 22.7197L98.3411 19.5003C96.944 17.7262 94.9331 15.5654 93.8696 14.6953C92.8062 13.8252 91.1191 12.7762 90.1233 12.3605C89.1275 11.9399 87.5516 11.6016 86.6187 11.6016C85.6857 11.6016 84.221 11.8916 83.3557 12.2493C82.4904 12.607 81.1224 13.6415 80.3055 14.5455C79.4934 15.4542 78.5459 17.064 78.193 18.1274C77.8256 19.2393 77.6854 20.8296 77.8595 21.8738C78.0238 22.8696 78.4879 24.3391 78.8843 25.1367C79.2807 25.9343 79.445 26.8528 79.2468 27.1815C79.0486 27.5054 71.4351 34.1424 62.3279 41.9251C47.9661 54.1986 45.5636 56.0742 44.2004 56.0694C43.3352 56.0645 41.4547 56.664 40.019 57.3987C38.1773 58.3414 37.0848 59.3033 36.3065 60.6665C35.7023 61.73 35.0642 63.359 34.8902 64.292C34.7162 65.225 34.837 66.9604 35.1609 68.1592C35.5283 69.5272 36.4902 71.0982 37.7374 72.3937C39.2311 73.9406 40.3526 74.6029 42.2282 75.0524C44.534 75.6083 44.795 75.8162 45.6506 77.8271C46.163 79.026 50.9632 90.1731 56.3241 102.601C61.6898 115.029 66.021 125.268 65.9534 125.355C65.8857 125.442 64.8561 126.07 63.6572 126.752C62.4584 127.433 60.5151 129.048 59.3308 130.339C58.1465 131.634 56.7591 133.669 56.2419 134.868C55.7295 136.067 55.1736 138.02 54.7047 141.394L48.5462 141.515C45.1576 141.583 42.3877 141.583 42.3925 141.515C42.3925 141.447 42.9388 138.566 43.601 135.11C44.2633 131.654 44.8095 128.444 44.8047 127.98C44.8047 127.516 44.2584 126.592 43.5962 125.925C42.4457 124.775 42.1122 124.717 36.8286 124.717C33.4448 124.717 31.2695 124.528 31.2695 124.233C31.2695 123.968 32.0865 123.242 33.0823 122.619C34.0781 122 35.654 120.835 36.5869 120.038C37.5199 119.235 39.0329 117.408 39.9562 115.967C40.8795 114.532 42.0203 112.105 42.494 110.577C42.9678 109.05 43.3545 106.493 43.3545 104.897C43.3545 102.64 43.1418 101.784 42.3877 101.03C41.856 100.499 40.8747 100.063 40.2124 100.063C39.5453 100.063 37.9694 100.847 36.7078 101.799C35.4461 102.751 33.6188 104.438 30.878 107.556L30.3027 105.381C29.9837 104.182 28.9831 101.577 26.4114 95.9546V50.7568C26.4114 11.3695 26.5081 5.32705 27.151 3.74634Z" fill="#ECE4B7"/>
<path d="M189.341 15.8651C189.892 15.1497 190.825 14.4971 191.415 14.4149C192 14.3279 206.216 14.2603 223.005 14.2603C252.864 14.2603 253.551 14.2796 254.566 15.2271C255.595 16.189 255.6 16.2567 255.566 66.709L254.237 67.6903C252.932 68.6571 252.337 68.6764 191.274 68.6426L188.374 65.7422L188.36 41.4514C188.34 17.6054 188.36 17.1365 189.341 15.8651Z" fill="#02020B"/>
<path d="M213.201 43.7476C213.67 42.6841 214.507 41.3257 215.072 40.7263C215.633 40.1269 216.542 39.6387 217.098 39.6339C217.649 39.6339 218.64 40.0157 219.292 40.4798C219.945 40.9487 221.395 43.2883 222.512 45.6812C223.628 48.074 224.837 50.2928 225.19 50.607C225.547 50.926 227.669 51.2499 234.055 51.4819L234.297 60.4248H212.061L212.21 53.053C212.326 47.3392 212.549 45.2461 213.201 43.7476Z" fill="#D36135"/>
<path d="M196.108 60.4248V41.0889V21.7529H247.832V60.4248H241.064V55.2283C241.064 51.2354 240.866 49.6499 240.219 48.3737C239.754 47.4649 238.831 46.2999 238.164 45.7972C237.318 45.1494 235.868 44.8014 229.705 44.3905L228.322 41.6544C227.558 40.1462 226.253 38.0676 225.422 37.0332C224.585 35.9987 222.927 34.5968 221.729 33.9201C220.196 33.0548 218.843 32.6922 217.136 32.6971C215.502 32.7019 214.023 33.0838 212.568 33.8766C211.384 34.5195 209.682 36.0277 208.783 37.2217C207.889 38.4157 206.729 40.8133 206.207 42.5391C205.554 44.6999 205.153 47.9773 204.568 60.4296L196.108 60.4248Z" fill="#ECE4B7"/>
<path d="M281.498 237.138C282.203 238.49 282.174 239.871 281.41 241.282L264.92 268.089C264.685 268.383 264.567 268.883 264.567 269.588V290.663C264.567 291.78 264.156 292.75 263.333 293.573C262.569 294.337 261.628 294.719 260.511 294.719H258.042C256.925 294.719 255.955 294.337 255.132 293.573C254.368 292.75 253.986 291.78 253.986 290.663V269.5C253.986 268.853 253.839 268.383 253.545 268.089L237.143 241.282C236.379 239.812 236.35 238.46 237.055 237.226C237.819 235.815 238.995 235.109 240.582 235.109H243.404C244.991 235.109 246.167 235.756 246.931 237.049C247.578 238.049 248.548 239.636 249.841 241.811C251.135 243.986 252.575 246.367 254.162 248.954C255.749 251.482 257.248 253.892 258.659 256.185C258.777 256.42 258.953 256.537 259.188 256.537C259.482 256.537 259.717 256.42 259.894 256.185C261.481 253.598 263.039 251.07 264.567 248.601C266.096 246.073 267.477 243.81 268.712 241.811C270.005 239.754 270.975 238.166 271.622 237.049C272.386 235.756 273.532 235.109 275.061 235.109H277.883C279.529 235.109 280.734 235.786 281.498 237.138Z" fill="#D36135"/>
<path d="M240.492 290.663C240.492 291.78 240.081 292.75 239.258 293.573C238.493 294.337 237.582 294.719 236.524 294.719H206.19C205.132 294.719 204.191 294.337 203.368 293.573C202.604 292.75 202.222 291.78 202.222 290.663V239.166C202.222 237.99 202.604 237.02 203.368 236.256C204.191 235.492 205.132 235.109 206.19 235.109H208.659C209.776 235.109 210.717 235.492 211.481 236.256C212.304 237.02 212.715 237.99 212.715 239.166V283.168C212.715 283.932 213.068 284.314 213.774 284.314H236.524C237.582 284.314 238.493 284.696 239.258 285.46C240.081 286.225 240.492 287.195 240.492 288.37V290.663Z" fill="#D36135"/>
<path d="M193.435 237.49C193.729 238.196 193.817 238.96 193.699 239.783C193.641 240.547 193.317 241.253 192.729 241.899L172.536 264.121C172.007 264.65 172.007 265.208 172.536 265.796L192.729 287.929C193.317 288.517 193.641 289.223 193.699 290.046C193.817 290.81 193.729 291.545 193.435 292.25C193.141 293.014 192.641 293.632 191.936 294.102C191.289 294.514 190.584 294.719 189.82 294.719H186.469C185.41 294.719 184.441 294.278 183.559 293.397L166.893 275.055C166.775 274.879 166.599 274.849 166.364 274.967C166.187 275.026 166.099 275.143 166.099 275.32V290.663C166.099 291.78 165.688 292.75 164.865 293.573C164.1 294.337 163.16 294.719 162.043 294.719H159.574C158.457 294.719 157.516 294.337 156.752 293.573C155.988 292.75 155.606 291.78 155.606 290.663V239.166C155.606 237.99 155.988 237.02 156.752 236.256C157.516 235.492 158.457 235.109 159.574 235.109H162.043C163.16 235.109 164.1 235.492 164.865 236.256C165.688 237.02 166.099 237.99 166.099 239.166V254.421C166.099 254.656 166.187 254.803 166.364 254.862C166.599 254.921 166.775 254.891 166.893 254.774L183.559 236.432C184.441 235.55 185.44 235.109 186.557 235.109H189.82C191.524 235.109 192.729 235.903 193.435 237.49Z" fill="#D36135"/>
<path d="M147.047 283.08C147.047 285.196 146.518 287.136 145.459 288.899C144.401 290.663 142.99 292.074 141.227 293.132C139.463 294.19 137.523 294.719 135.407 294.719H118.476C116.36 294.719 114.391 294.19 112.568 293.132C110.805 292.074 109.394 290.663 108.336 288.899C107.277 287.136 106.748 285.196 106.748 283.08V280.434C106.748 279.317 107.13 278.377 107.895 277.612C108.718 276.789 109.688 276.378 110.805 276.378H113.274C114.332 276.378 115.243 276.789 116.007 277.612C116.83 278.377 117.242 279.317 117.242 280.434V283.08C117.242 283.373 117.359 283.667 117.594 283.961C117.888 284.196 118.182 284.314 118.476 284.314H135.407C135.701 284.314 135.965 284.196 136.2 283.961C136.436 283.667 136.553 283.373 136.553 283.08V275.055C136.553 274.408 136.259 273.997 135.671 273.821L114.508 265.884C112.157 265.061 110.275 263.621 108.865 261.564C107.454 259.506 106.748 257.243 106.748 254.774V246.837C106.748 244.662 107.277 242.693 108.336 240.929C109.394 239.166 110.805 237.755 112.568 236.697C114.391 235.639 116.36 235.109 118.476 235.109H135.407C137.523 235.109 139.463 235.639 141.227 236.697C142.99 237.755 144.401 239.166 145.459 240.929C146.518 242.693 147.047 244.662 147.047 246.837V249.218C147.047 250.335 146.635 251.276 145.812 252.04C145.048 252.804 144.107 253.186 142.99 253.186H140.609C139.493 253.186 138.523 252.804 137.7 252.04C136.935 251.276 136.553 250.335 136.553 249.218V246.837C136.553 246.014 136.171 245.603 135.407 245.603H118.476C118.182 245.603 117.888 245.721 117.594 245.956C117.359 246.191 117.242 246.485 117.242 246.837V254.774C117.242 255.479 117.536 255.92 118.124 256.096L139.375 264.033C141.668 264.856 143.519 266.296 144.93 268.353C146.341 270.411 147.047 272.645 147.047 275.055V283.08Z" fill="#D36135"/>
<path d="M98.3119 290.663C98.3119 291.78 97.9004 292.75 97.0774 293.573C96.3131 294.337 95.4019 294.719 94.3438 294.719H64.0098C62.9516 294.719 62.011 294.337 61.188 293.573C60.4238 292.75 60.0417 291.78 60.0417 290.663V239.166C60.0417 237.99 60.4238 237.02 61.188 236.256C62.011 235.492 62.9516 235.109 64.0098 235.109H94.3438C95.4019 235.109 96.3131 235.492 97.0774 236.256C97.9004 237.02 98.3119 237.99 98.3119 239.166V241.547C98.3119 242.664 97.9004 243.634 97.0774 244.457C96.3131 245.221 95.4019 245.603 94.3438 245.603H71.5933C70.8879 245.603 70.5351 245.985 70.5351 246.749V258.477C70.5351 259.3 70.8879 259.712 71.5933 259.712H91.1693C92.345 259.712 93.315 260.094 94.0792 260.858C94.8435 261.622 95.2256 262.563 95.2256 263.68V266.149C95.2256 267.266 94.8435 268.236 94.0792 269.059C93.315 269.823 92.345 270.205 91.1693 270.205H71.5933C70.8879 270.205 70.5351 270.558 70.5351 271.263V283.168C70.5351 283.932 70.8879 284.314 71.5933 284.314H94.3438C95.4019 284.314 96.3131 284.696 97.0774 285.46C97.9004 286.225 98.3119 287.195 98.3119 288.37V290.663Z" fill="#D36135"/>
<path d="M51.544 283.08C51.544 285.196 51.0149 287.136 49.9568 288.899C48.8986 290.663 47.4877 292.074 45.7241 293.132C43.9605 294.19 42.0206 294.719 39.9042 294.719H16.3601C15.2432 294.719 14.2732 294.337 13.4502 293.573C12.6859 292.75 12.3038 291.78 12.3038 290.663V239.166C12.3038 237.99 12.6859 237.02 13.4502 236.256C14.2732 235.492 15.2432 235.109 16.3601 235.109H39.9042C42.0206 235.109 43.9605 235.639 45.7241 236.697C47.4877 237.755 48.8986 239.166 49.9568 240.929C51.0149 242.693 51.544 244.662 51.544 246.837V283.08ZM41.0506 283.08V246.837C41.0506 246.014 40.6685 245.603 39.9042 245.603H24.0318C23.2676 245.603 22.8855 245.985 22.8855 246.749V283.168C22.8855 283.932 23.2676 284.314 24.0318 284.314H39.9042C40.1982 284.314 40.4627 284.196 40.6979 283.961C40.933 283.667 41.0506 283.373 41.0506 283.08Z" fill="#D36135"/>
</svg>
